<svg width="156" height="31" viewBox="0 0 156 31" fill="none" xmlns="http://www.w3.org/2000/svg">
<path d="M48.1099 24.4574C45.1763 24.4574 43.1968 23.667 42.1737 22.0839V31.0001H38.5918V6.86258H40.5713L41.3231 9.33664C41.7553 8.61247 42.5117 7.97968 43.5922 7.43826C44.6728 6.89685 46.158 6.625 48.0455 6.625C49.4341 6.625 50.6227 6.86258 51.6113 7.33775C52.5999 7.81291 53.3678 8.47997 53.915 9.33893C54.4599 10.1979 54.8599 11.1368 55.1082 12.1534C55.3588 13.17 55.4829 14.3122 55.4829 15.5778C55.4829 21.4991 53.0253 24.4597 48.1122 24.4597L48.1099 24.4574ZM50.8228 11.1162C50.1514 10.1111 48.8962 9.60849 47.0523 9.60849C45.2085 9.60849 43.8727 10.1065 43.1807 11.1002C42.4887 12.094 42.1392 13.5857 42.1392 15.5755C42.1392 17.5652 42.4634 18.9816 43.1117 19.9662C43.7601 20.9485 45.0406 21.4419 46.9512 21.4419C48.8617 21.4419 50.1239 20.9508 50.8067 19.9662C51.4895 18.9839 51.8298 17.5195 51.8298 15.5755C51.8298 13.6314 51.4941 12.1237 50.8228 11.1162Z" fill="#28226C"/>
<path d="M72.2497 22.9154C71.0105 23.9434 69.1046 24.4574 66.5342 24.4574C60.6877 24.4574 57.7656 21.4739 57.7656 15.5069C57.7656 9.53996 60.6762 6.625 66.4997 6.625C67.7504 6.625 68.8586 6.81233 69.8265 7.18469C70.7921 7.55706 71.5783 8.05964 72.1807 8.69243C72.783 9.32522 73.2613 10.0882 73.613 10.9814C73.9648 11.8747 74.1924 12.8113 74.2958 13.7959C74.397 14.7782 74.4039 15.8359 74.3119 16.9667H61.5522C61.7568 20.1078 63.373 21.6795 66.3963 21.6795C68.716 21.6795 70.1047 20.752 70.5599 18.8994H74.3809C74.1993 20.5487 73.4889 21.8874 72.2474 22.9177L72.2497 22.9154ZM69.5368 10.7439C68.831 9.87349 67.7067 9.43944 66.1595 9.43944C63.3155 9.43944 61.7913 10.9883 61.5867 14.0837H70.5599C70.5829 14.0837 70.5829 14.0723 70.5599 14.0495C70.5829 14.0266 70.5829 14.0152 70.5599 14.0152C70.5829 12.7039 70.2426 11.6142 69.5368 10.7439Z" fill="#28226C"/>
<path d="M91.1713 22.5933C89.8747 23.8361 87.9297 24.4574 85.3363 24.4574C79.5358 24.4574 76.6367 21.4854 76.6367 15.5412C76.6367 14.2985 76.7724 13.1745 77.046 12.1671C77.3195 11.1619 77.7679 10.2299 78.3932 9.37091C79.0185 8.51196 79.9175 7.84033 81.0877 7.35374C82.2579 6.86715 83.6534 6.625 85.2674 6.625C87.8607 6.625 89.8172 7.25779 91.1369 8.52338C92.4565 9.78896 93.1163 11.5411 93.1163 13.7776H89.3965C89.2608 12.3772 88.8677 11.3264 88.2194 10.6251C87.571 9.92375 86.5525 9.57423 85.1662 9.57423C81.959 9.57423 80.3543 11.5526 80.3543 15.5069C80.3543 17.3368 80.7175 18.7669 81.4463 19.7949C82.1751 20.8229 83.4373 21.3369 85.2329 21.3369C86.6215 21.3369 87.6262 21.0102 88.2515 20.3546C88.8769 19.6989 89.2585 18.7166 89.3942 17.4053H93.114C93.114 19.6212 92.4657 21.3483 91.169 22.5933H91.1713Z" fill="#28226C"/>
<path d="M109.63 22.5933C108.334 23.8361 106.389 24.4574 103.795 24.4574C97.9948 24.4574 95.0957 21.4854 95.0957 15.5412C95.0957 14.2985 95.2313 13.1745 95.5049 12.1671C95.7785 11.1619 96.2268 10.2299 96.8522 9.37091C97.4775 8.51196 98.3765 7.84033 99.5467 7.35374C100.717 6.86715 102.112 6.625 103.726 6.625C106.32 6.625 108.276 7.25779 109.596 8.52338C110.915 9.78896 111.575 11.5411 111.575 13.7776H107.855C107.72 12.3772 107.327 11.3264 106.678 10.6251C106.03 9.92375 105.012 9.57423 103.625 9.57423C100.418 9.57423 98.8133 11.5526 98.8133 15.5069C98.8133 17.3368 99.1765 18.7669 99.9053 19.7949C100.634 20.8229 101.896 21.3369 103.692 21.3369C105.08 21.3369 106.085 21.0102 106.711 20.3546C107.336 19.6989 107.718 18.7166 107.853 17.4053H111.573C111.573 19.6212 110.925 21.3483 109.628 22.5933H109.63Z" fill="#28226C"/>
<path d="M128.089 24.2198L127.338 21.6087C126.882 22.3763 126.048 23.0433 124.829 23.6099C123.613 24.1742 122.162 24.4574 120.48 24.4574C118.5 24.4574 116.879 24.0051 115.617 23.1005C114.355 22.1958 113.723 20.8731 113.723 19.1347C113.723 17.5515 114.302 16.3659 115.463 15.5755C116.624 14.7851 118.466 14.2642 120.99 14.0152L126.482 13.4738C126.436 12.1168 126.085 11.1185 125.425 10.4743C124.765 9.83008 123.604 9.50798 121.944 9.50798C120.397 9.50798 119.323 9.79582 118.721 10.3715C118.118 10.9472 117.817 11.813 117.817 12.9644L114.27 12.9986C114.27 10.986 114.826 9.42117 115.941 8.30407C117.056 7.18697 119.045 6.625 121.912 6.625C123.301 6.625 124.494 6.74836 125.494 6.99737C126.494 7.24637 127.285 7.57305 127.864 7.97968C128.443 8.38631 128.906 8.93458 129.246 9.62448C129.586 10.3144 129.809 11.0203 129.91 11.7445C130.014 12.4686 130.064 13.339 130.064 14.3556V24.2221H128.085L128.089 24.2198ZM126.485 16.2197L121.537 16.7611C120.036 16.9187 118.983 17.1792 118.381 17.5401C117.778 17.901 117.477 18.4219 117.477 19.1004C117.477 19.8908 117.813 20.5076 118.484 20.9485C119.155 21.3894 120.128 21.6087 121.401 21.6087C122.995 21.6087 124.239 21.1792 125.137 20.3203C126.036 19.4613 126.485 18.2757 126.485 16.7611V16.2197Z" fill="#28226C"/>
<path d="M133.172 24.2199V0.251465H136.823V24.2199H133.172Z" fill="#28226C"/>
<path d="M154.021 24.2198L153.269 21.6087C152.814 22.3763 151.98 23.0433 150.761 23.6099C149.545 24.1742 148.094 24.4574 146.411 24.4574C144.432 24.4574 142.811 24.0051 141.549 23.1005C140.287 22.1958 139.654 20.8731 139.654 19.1347C139.654 17.5515 140.234 16.3659 141.395 15.5755C142.556 14.7851 144.397 14.2642 146.922 14.0152L152.414 13.4738C152.368 12.1168 152.016 11.1185 151.356 10.4743C150.697 9.83008 149.536 9.50798 147.876 9.50798C146.328 9.50798 145.255 9.79582 144.652 10.3715C144.05 10.9472 143.749 11.813 143.749 12.9644L140.201 12.9986C140.201 10.986 140.758 9.42117 141.873 8.30407C142.988 7.18697 144.977 6.625 147.844 6.625C149.232 6.625 150.425 6.74836 151.425 6.99737C152.426 7.24637 153.216 7.57305 153.796 7.97968C154.375 8.38631 154.837 8.93458 155.178 9.62448C155.518 10.3144 155.741 11.0203 155.842 11.7445C155.945 12.4686 155.996 13.339 155.996 14.3556V24.2221H154.016L154.021 24.2198ZM152.416 16.2197L147.469 16.7611C145.967 16.9187 144.915 17.1792 144.312 17.5401C143.71 17.901 143.409 18.4219 143.409 19.1004C143.409 19.8908 143.744 20.5076 144.416 20.9485C145.087 21.3894 146.059 21.6087 147.333 21.6087C148.926 21.6087 150.17 21.1792 151.069 20.3203C151.968 19.4613 152.416 18.2757 152.416 16.7611V16.2197Z" fill="#28226C"/>
<path fill-rule="evenodd" clip-rule="evenodd" d="M28.7842 14.3007C28.7842 22.1987 22.3406 28.6013 14.3921 28.6013C6.44355 28.6013 0 22.1987 0 14.3007C0 6.40263 6.44355 0 14.3921 0C22.3406 0 28.7842 6.40263 28.7842 14.3007ZM22.2082 12.1415C22.2082 12.4796 22.1852 12.8155 22.1415 13.1467H18.9827C19.0424 12.852 19.0746 12.5505 19.0746 12.2466C19.0746 11.5453 18.9298 10.8508 18.6056 10.2569L12.5361 15.8332H21.1966C20.1598 17.4803 18.3021 18.6294 15.5433 18.6294H10.7405V24.2194C9.04154 24.2194 7.66211 22.8511 7.66211 21.1606V8.82909C7.66211 7.1386 9.03924 5.76564 10.7405 5.76107V14.0308L16.5434 8.69888C16.1893 8.6075 15.7985 8.55496 15.3593 8.55496H13.8006V5.75879H15.5456C20.1115 5.75879 22.2082 8.8725 22.2082 12.1415Z" fill="#FDC367"/>
</svg>
